# xmcd
#
# Track frame offsets:
#	150
#	11266
#	22001
#	32667
#	44508
#	54580
#	64777
#	77309
#	88142
#	99111
#	108700
#	121175
#	131527
#	140472
#	153667
#	164123
#	178067
#	188005
#
# Disc length: 2631 seconds
#
# Revision: 1
# Processed by: cddbd v1.5.2PL0 Copyright (c) Steve Scherf et al.
# Submitted via: audiograbber 1.83.01
#
DISCID=ec0a4512
DTITLE=arist-o-kats - music for mad men - robust blues
DYEAR=2009
DGENRE=blues
TTITLE0=chasing the blues
TTITLE1=you cant't beat the horses
TTITLE2=water water
TTITLE3=louise
TTITLE4=over twenty one
TTITLE5=once more
TTITLE6=gary stomp
TTITLE7=this little letter
TTITLE8=mama, talk to your daughter
TTITLE9=rock H-Bomb rock
TTITLE10=easy loving
TTITLE11=i done woke up
TTITLE12=great googa mooga
TTITLE13=blue blues boogie
TTITLE14=jukebox shuffle
TTITLE15=tough times
TTITLE16=wow wow
TTITLE17=drop anchor
EXTD=
EXTT0=
EXTT1=
EXTT2=
EXTT3=
EXTT4=
EXTT5=
EXTT6=
EXTT7=
EXTT8=
EXTT9=
EXTT10=
EXTT11=
EXTT12=
EXTT13=
EXTT14=
EXTT15=
EXTT16=
EXTT17=
PLAYORDER=
